<svg id="Layer_1" data-name="Layer 1" xmlns="http://www.w3.org/2000/svg" width="1000" height="1152.71" viewBox="0 0 1000 1152.71"><defs><style>.cls-1{fill:none;stroke:#000;stroke-miterlimit:10;stroke-width:3px;}</style></defs><title>Artboard 3</title><path d="M281.62,733.71a2.8,2.8,0,0,1,2.58.1A3.88,3.88,0,0,1,286,736a2.56,2.56,0,0,1,.1,1.24,4,4,0,0,1-.38,1.25,3.21,3.21,0,0,1-.86,1,3.34,3.34,0,0,1-1.15.67c-2.28.77-5.8,1.82-10.5,3.16s-13.38,3.53-26,6.59-25,5.73-37.25,8-26.17,4.14-41.85,5.55a284.07,284.07,0,0,1-42.21,1q-24.09-1.53-61.52-8.6-18.15-3.43-25.61-4.4-6.3,16.63-8.6,20.64-4.77,8.79-12.61,8.79a12.8,12.8,0,0,1-3-.38,17.48,17.48,0,0,1-9.94-6.88A21.54,21.54,0,0,1,0,761.79a15.09,15.09,0,0,1,2.77-9.65,16.84,16.84,0,0,1,8.69-6q9-3.06,22.74-1.92Q50.46,700.84,107,535.59q41.44-120.55,47.76-137,5.36-13.75,2.1-16.05c-1-.89-3.14-.89-6.39,0a56.48,56.48,0,0,0-10.8,4.4A87.09,87.09,0,0,0,128.21,394a4.11,4.11,0,0,1-2.68.57,3.14,3.14,0,0,1-2.19-1.43,3.19,3.19,0,0,1-.58-2.58,4.08,4.08,0,0,1,1.43-2.29l4.4-2.78c1.52-.95,3.5-2.12,5.92-3.53a57,57,0,0,1,7.16-3.53,69,69,0,0,1,7.26-2.49,19.1,19.1,0,0,1,6.88-.76,10.52,10.52,0,0,1,5.45,2q7.06,5.55,0,23.88-6.3,16.25-47.77,136.8Q57.33,701.61,41.28,745q7.63.93,24.45,4,36.87,7.05,60.57,8.59a273.46,273.46,0,0,0,41.45-1q22.94-2.11,41.27-5.55t36.59-7.83q18.24-4.39,25.79-6.59ZM24.27,768.87q1.92-3.64,7.45-18c-1.53-.12-3-.19-4.58-.19a41,41,0,0,0-13.37,1.92q-7.27,2.48-6.88,8.78a13.7,13.7,0,0,0,3.05,7.74,12.33,12.33,0,0,0,6.31,4.68Q20.84,775,24.27,768.87Z"/><path d="M395,647.31a3.92,3.92,0,0,1,3,1.34,4.51,4.51,0,0,1,1.22,3.16,4.08,4.08,0,0,1-1.22,3c-1.78,1.62-4.24,3.73-7.41,6.32s-8.87,6.33-17.15,11.19a92.29,92.29,0,0,1-23.82,10.21,38.59,38.59,0,0,1-10.69,1.7q-8.52,0-12.89-5.1-8-9.49.73-30.15,7-16,17-25.54t19.45-8.75q10,.72,12.89,12.4A14.39,14.39,0,0,1,373.93,640q-3.42,4.62-10.83,7.66a53.72,53.72,0,0,1-11.55,3.64c-2.75.41-5.19.7-7.29.85a3.83,3.83,0,0,1-3.15-1,4.16,4.16,0,0,1-1.59-3.05,4.06,4.06,0,0,1,1.09-3.15,5,5,0,0,1,3.16-1.59q2.93-.24,6.94-1a45.22,45.22,0,0,0,9-2.79q5-2.07,6.94-4.75a6.18,6.18,0,0,0,1-5.84c-.82-3.56-2.51-5.43-5.11-5.59q-5.82-.72-13.74,7.18t-14,21.76q-6.57,15.81-2.19,20.91c2.27,2.6,7.12,2.92,14.59,1a93.09,93.09,0,0,0,22.49-9.85q11.79-6.93,15.69-10.21t6.56-5.71A4.14,4.14,0,0,1,395,647.31Z"/><path d="M462.92,647.56a7.71,7.71,0,0,1,1.83-.25,3.36,3.36,0,0,1,1.57.37,5,5,0,0,1,1.34,1,3.5,3.5,0,0,1,.85,1.33,4.22,4.22,0,0,1,0,3.41,4.42,4.42,0,0,1-2.43,2.43,273,273,0,0,0-40.36,18.48,22,22,0,0,1-13.38,30.16,19.74,19.74,0,0,1-6.56,1.21,13,13,0,0,1-9.24-3.4,11.83,11.83,0,0,1-2.19-11.43q2.43-8.76,19-19.46a48.35,48.35,0,0,0-6.56-5.83,44.8,44.8,0,0,1-11.31-16.9,47,47,0,0,1-3.4-18.84,32.57,32.57,0,0,1,4.26-15.57,18.73,18.73,0,0,1,9.6-8,19,19,0,0,1,13,.24q7.05,3.16,8,9.48.74,5.59-3.88,13.26a72.5,72.5,0,0,1-8.88,12.15q-4.26,4.5-8.64,8.4a35.74,35.74,0,0,0,6.81,9,59.83,59.83,0,0,1,8.76,8A317.42,317.42,0,0,1,462.92,647.56Zm-59.09-28.7q-5.1,8.52-1.7,22.13a104,104,0,0,0,11.79-13.38q5-6.79,4.26-10.45c-.16-1-1-1.86-2.43-2.68a19.44,19.44,0,0,0-4.14-.48Q406.75,614,403.83,618.86Zm5.6,77.33a17,17,0,0,0,6.2-4,12.51,12.51,0,0,0,3.52-6.45,13.57,13.57,0,0,0-1-7.05q-13.62,8.76-15.56,14.84a3,3,0,0,0,.48,2.91C404.24,697.4,406.34,697.32,409.43,696.19Z"/><path d="M539.15,647.31a4.36,4.36,0,0,1,3.29.85,4.28,4.28,0,0,1,1.69,2.92,4.15,4.15,0,0,1-1,3.28c-1.14,1.46-2.65,3.28-4.51,5.47s-5.26,5.8-10.22,10.82a144,144,0,0,1-14.82,13.26,92.16,92.16,0,0,1-17.39,10.34q-10,4.61-18.72,4.61a31.88,31.88,0,0,1-9.73-1.46q-14.59-4.62-15.8-18.23-1.22-14.1,11.79-31.61t26.38-24.32q11.43-5.84,17-1,6.79,5.82,1.7,21.4a4,4,0,0,1-2.19,2.55,4.23,4.23,0,0,1-3.4.25,4.1,4.1,0,0,1-2.43-2.2,4.53,4.53,0,0,1-.24-3.28,33.32,33.32,0,0,0,1.46-7.78c.15-2.6,0-4.05-.49-4.38q-1.23-1.22-7.53,2.19-11.93,6.09-23,21.4t-10.33,26q.74,7.78,9.72,10.69,7.79,2.43,17.63-1a64.07,64.07,0,0,0,17.39-9,149.49,149.49,0,0,0,15.68-13.62q8.15-8,10.82-11.19t4.38-5.34A3.77,3.77,0,0,1,539.15,647.31Z"/><path d="M632,647.19a3.77,3.77,0,0,1,2.91,1.58,4.86,4.86,0,0,1,1,3.28,3.46,3.46,0,0,1-1.59,2.8q-32.58,28-46.68,28a11.47,11.47,0,0,1-7.06-2.18q-8.75-6.57-2.43-29.92a35.58,35.58,0,0,1-2.91,3.65A59,59,0,0,1,559.57,669q-8.62,5.34-15.2,2.67-9-3.89-6.8-20.67a28.75,28.75,0,0,1,5.83-14.35,35.46,35.46,0,0,1,10.45-9.48,59.75,59.75,0,0,1,12.66-5.22,95.72,95.72,0,0,1,10-2.56,31.12,31.12,0,0,1,4.86-.49,3.32,3.32,0,0,1,2.31.37,5.14,5.14,0,0,1,1.71,1.45,5.68,5.68,0,0,1,.85,2.07,5,5,0,0,1-1.1,3.29,4.41,4.41,0,0,1-3,1.57c-.32,0-1,0-1.94.13a38.82,38.82,0,0,0-4.74.85c-2.19.48-4.42,1.06-6.69,1.7a42.42,42.42,0,0,0-7.29,2.92,35.85,35.85,0,0,0-6.94,4.49,25.83,25.83,0,0,0-5.34,6.33,22.43,22.43,0,0,0-3,8.14q-1.23,10,1.7,11.19,2.41,1,8.51-2.79A48.64,48.64,0,0,0,568.45,649q13.84-17.74,19.44-23.35a4.08,4.08,0,0,1,5.72-.61q3,2.07,1.34,5.48a138.19,138.19,0,0,0-9.24,26.74q-2.93,12.9.24,16.29c.16.33.57.53,1.21.61a14.06,14.06,0,0,0,4.14-.73,38,38,0,0,0,7.54-3.16,122.1,122.1,0,0,0,12.28-7.9,222.72,222.72,0,0,0,17.63-14.1A4.45,4.45,0,0,1,632,647.19Z"/><path d="M678.11,647.56a4.14,4.14,0,0,1,3.41,0,4.06,4.06,0,0,1,2.31,2.42,4.58,4.58,0,0,1-.12,3.41c-1.14,2.76-2.44,5.75-3.89,9s-3.74,7.74-6.81,13.49A170.25,170.25,0,0,1,664,691a65.53,65.53,0,0,1-10,11.55q-5.6,5.1-10.46,5.35h-.48a7.78,7.78,0,0,1-6.82-3.65q-7.28-10,8.76-52.77a25.77,25.77,0,0,1-8.76,0,273.4,273.4,0,0,1-15.07,28.7,4.67,4.67,0,0,1-2.79,1.94,4.13,4.13,0,0,1-3.29-.36,4.27,4.27,0,0,1-2-2.67,3.86,3.86,0,0,1,.5-3.28A264.56,264.56,0,0,0,628,648.29a46.7,46.7,0,0,1-5.35-4.62q-8.5-8.52-3.64-18a17.92,17.92,0,0,1,7.54-7.41,13.88,13.88,0,0,1,9.71-1.83q6.83,1.22,7.79,8.51.48,5.84-4.14,18.23,5.36.51,10.47-3.64c1.61-1.46,3.35-1.49,5.22-.12a4.09,4.09,0,0,1,1.58,5.22A262.62,262.62,0,0,0,645.29,680q-4.14,16.43-1.95,19.34,5.34-.5,15.08-15.69A208.84,208.84,0,0,0,675.69,650,4.42,4.42,0,0,1,678.11,647.56ZM631.67,640q4.13-10.21,3.65-14.1a3.44,3.44,0,0,0-2-.5q-4.38,0-6.57,4.39-1.93,3.63,2,7.78A19,19,0,0,0,631.67,640Z"/><path d="M752.88,647.19a3.81,3.81,0,0,1,2.92,1.58,4.85,4.85,0,0,1,1,3.28,4.19,4.19,0,0,1-1.59,3q-19.44,16.29-42.79,39.39-8,28.95-16.17,54t-17.75,49.73q-9.62,24.69-19.33,39.52t-18,15.8a4.65,4.65,0,0,1-1.46.24q-8.27,0-13.85-11.42A42.61,42.61,0,0,1,621.46,823a74.83,74.83,0,0,1,3.27-21.51,128.66,128.66,0,0,1,9.74-23.11A225,225,0,0,1,648.69,755q7.77-11.2,17.63-23.23t19-22q9.11-10,19.08-19.95,5.11-18.23,9.49-35.25-15.55,25.53-27.73,24.56a11.6,11.6,0,0,1-8-4.26,22,22,0,0,1-4.37-7.9q-4.14-14.6,3.15-25.29a29.18,29.18,0,0,1,7.9-8.15,52.26,52.26,0,0,1,9.61-5.47,72.62,72.62,0,0,1,9.73-3.28c3.41-.89,5.79-1.46,7.17-1.7a20.26,20.26,0,0,1,3.53-.37c2.27-.32,3.8.66,4.62,2.92q1.93-4.38,3.89-8.51c1-2.27,2.76-3,5.35-2.18,2.43.8,3.41,2.51,2.92,5.1q-6.83,28.44-14.59,57.63Q735.49,660,749.6,648.29A4.47,4.47,0,0,1,752.88,647.19ZM640.18,844.76q10.47-1,26.38-39.76t32.7-97.38q-8.75,9.48-16.77,18.6t-16.17,19.57q-8.13,10.46-14.59,20.19a188.23,188.23,0,0,0-11.55,19.93,111.74,111.74,0,0,0-7.66,19.21,61.31,61.31,0,0,0-2.43,17.63,34.72,34.72,0,0,0,3.77,15.68Q637,845.24,640.18,844.76Zm46.68-174.35a3.28,3.28,0,0,0,1.95-.12,14.13,14.13,0,0,0,3.89-2.56,41.47,41.47,0,0,0,5.83-6.07,116.64,116.64,0,0,0,8-11.79q4.86-7.9,10.21-18.85a2.71,2.71,0,0,1-1.21.25q-1.95.24-6.44,1.09t-12.89,4.74c-5.6,2.6-9.6,5.75-12,9.48q-5.1,7.54-1.94,18Q683.71,670.18,686.86,670.41Z"/><path d="M828.39,647.56a4.11,4.11,0,0,1,5.59,2.67,3.75,3.75,0,0,1-.86,4.26,6.8,6.8,0,0,1-1.81,1.33q-20.92,6.81-33.81,6.08c-.64,1.79-1.46,3.73-2.42,5.83-1.31,2.92-3.86,6.42-7.67,10.46a63.33,63.33,0,0,1-13.86,10.94Q765.41,694,758.84,694a16.12,16.12,0,0,1-3.89-.48q-13.14-3.9-9.24-30.16,3.9-26.75,20.43-38.9a38.61,38.61,0,0,1,8.63-4.87,48.16,48.16,0,0,1,8.26-2.67,41.91,41.91,0,0,1,7.18-.85,49.2,49.2,0,0,1,5,0q1.32.12,2.07.12a5.3,5.3,0,0,1,2.18,1,3.7,3.7,0,0,1,1.33,1.83,4.46,4.46,0,0,1,.13,2.3,4.4,4.4,0,0,1-4.87,3.65,12.41,12.41,0,0,1-4-.24c-2-.33-5.19.12-9.49,1.34a34,34,0,0,0-11.29,5.46q-13.63,10-17,33.08-2.67,18.72,3.16,20.42,5.58,1.71,16.29-6.56t13.62-14.35c.49-1.3,1-2.51,1.46-3.65a19.69,19.69,0,0,1-9-6.08c-1.62-1.94-2.35-4.7-2.19-8.26a13.76,13.76,0,0,1,2.92-8.51q5.34-6.57,14.11-1.46,8,4.88,5.59,17.26Q811.13,653.15,828.39,647.56Zm-37,4.61q1.7-6.79-1.47-8.5a4.17,4.17,0,0,0-2.18-.73h-.49a6.27,6.27,0,0,0-1,3,5.76,5.76,0,0,0,.24,3A11.9,11.9,0,0,0,791.43,652.17Z"/><path d="M942.67,562.45a3.8,3.8,0,0,1,2.31.24,4.7,4.7,0,0,1,1.82,1.46,3.54,3.54,0,0,1,.73,2.19,4.08,4.08,0,0,1-.85,3.16,4.28,4.28,0,0,1-3,1.71l-83.41,9.23L758.11,885.12c0,2.76.48,4.46,1.46,5.11a8.39,8.39,0,0,0,1.46.49,10.54,10.54,0,0,0,3.77-.37,36.58,36.58,0,0,0,6.32-2.07,81.44,81.44,0,0,0,9.85-5.23,160.88,160.88,0,0,0,14.1-9.6,4.62,4.62,0,0,1,3.28-.73,4.17,4.17,0,0,1,2.92,1.71,3.94,3.94,0,0,1,.73,3.28,5.16,5.16,0,0,1-1.82,3Q774.64,899.48,762,899.47a12.42,12.42,0,0,1-7-2,10.84,10.84,0,0,1-5-6.68,17.6,17.6,0,0,1-.36-7.91L850.75,581.66,785.34,589h-.48a3.26,3.26,0,0,1-1.46-.37,7.42,7.42,0,0,1-1.34-.85,3.8,3.8,0,0,1-1-1.22,3.37,3.37,0,0,1-.35-1.46,4.12,4.12,0,0,1,.85-3.28,4.5,4.5,0,0,1,3-1.58l65-7.78,17.26-52a20.37,20.37,0,0,0,6.58-2.43,4.64,4.64,0,0,1,3.28-.24,4,4,0,0,1,2.55,2.19,3.84,3.84,0,0,1,.12,3.4l-16,48.15Z"/><path d="M337.82,436.68a43.16,43.16,0,0,1,.5,11.55,115.2,115.2,0,0,1-1.71,13,32.17,32.17,0,0,1-5.1,12,26.86,26.86,0,0,1-10,8.87,4.21,4.21,0,0,1-1.94.48,4.05,4.05,0,0,1-3.89-2.42,4.91,4.91,0,0,1-.24-3.41,3.63,3.63,0,0,1,2.19-2.43q11.18-5.6,11.9-25.53a12.33,12.33,0,0,1-5.58.73q-6.09,0-8-4.62-3.17-7.29,8.76-20.91a4.47,4.47,0,0,1,2.91-1.34,4.32,4.32,0,0,1,3.17,1.1H331c2.59-.82,4.38.08,5.34,2.67A27.82,27.82,0,0,1,337.82,436.68Zm-9.48,2.92a9,9,0,0,0,.73-2.68c-.16-1.29-.32-2.58-.48-3.89-2.44,3.25-3.89,5.84-4.38,7.79C326.31,440.82,327.7,440.41,328.34,439.6Z"/><polyline class="cls-1" points="214.18 696.85 214.18 29.71 973.43 29.71 973.43 1118.34 214.18 1118.34 214.18 811.29"/></svg>
